<?xml version="1.0" encoding="UTF-8" standalone="no"?>
<!-- Generator: Adobe Illustrator 23.0.3, SVG Export Plug-In . SVG Version: 6.00 Build 0)  -->

<svg
   version="1.1"
   id="Layer_1"
   x="0px"
   y="0px"
   viewBox="0 0 800 480"
   style="enable-background:new 0 0 800 480;"
   xml:space="preserve"
   sodipodi:docname="homoflexible_flag_lesbian_bi.svg"
   inkscape:version="1.3 (0e150ed6c4, 2023-07-21)"
   xmlns:inkscape="http://www.inkscape.org/namespaces/inkscape"
   xmlns:sodipodi="http://sodipodi.sourceforge.net/DTD/sodipodi-0.dtd"
   xmlns="http://www.w3.org/2000/svg"
   xmlns:svg="http://www.w3.org/2000/svg"><defs
   id="defs10" /><sodipodi:namedview
   id="namedview10"
   pagecolor="#ffffff"
   bordercolor="#000000"
   borderopacity="0.25"
   inkscape:showpageshadow="2"
   inkscape:pageopacity="0.0"
   inkscape:pagecheckerboard="0"
   inkscape:deskcolor="#d1d1d1"
   inkscape:zoom="1.02875"
   inkscape:cx="400.48603"
   inkscape:cy="240.09721"
   inkscape:window-width="1896"
   inkscape:window-height="1026"
   inkscape:window-x="0"
   inkscape:window-y="0"
   inkscape:window-maximized="1"
   inkscape:current-layer="g7" />&#10;<style
   type="text/css"
   id="style1">&#10;	.st0{fill:#FFFFFF;}&#10;	.st1{fill:#FF9A56;}&#10;	.st2{fill:#EF7627;}&#10;	.st3{fill:#D52D00;}&#10;	.st4{fill:#D162A4;}&#10;	.st5{fill:#B55690;}&#10;	.st6{fill:#A30262;}&#10;	.st7{fill:#0038A8;}&#10;	.st8{fill:#9B4F96;}&#10;	.st9{fill:#D60270;}&#10;</style>&#10;<g
   id="g7">&#10;	<path
   class="st6"
   d="M 0,0 H 800 V 480 H 0 Z"
   id="path7"
   style="stroke-width:2.6452" /><path
   class="st5"
   d="M 0,0 H 800 V 411.4 H 0 Z"
   id="path6"
   style="stroke-width:2.44889" /><path
   class="st4"
   d="m 0,-0.1 h 800 v 343 H 0 Z"
   id="path5"
   style="stroke-width:2.23607" /><path
   class="st0"
   d="M 0,-0.1 H 800 V 274.3 H 0 Z"
   id="path1"
   style="stroke-width:2" />&#10;	<path
   class="st1"
   d="M 0,0.1 H 800 V 205.7 H 0 Z"
   id="path2"
   style="stroke-width:1.73121" />&#10;	<path
   class="st2"
   d="M 0,0 H 800 V 137.2 H 0 Z"
   id="path3"
   style="stroke-width:1.41421" />&#10;	<path
   class="st3"
   d="M0,0h800v68.6H0V0L0,0z"
   id="path4" />&#10;	&#10;	&#10;	&#10;</g>&#10;<g
   id="g10">&#10;	<g
   id="XMLID_1_">&#10;		<g
   id="g8">&#10;			<polygon
   class="st0"
   points="87,0 327,240 87,480 0,480 0,0    "
   id="polygon7" />&#10;		</g>&#10;	</g>&#10;	<path
   class="st7"
   d="M0,480L0.1,0L240,239.9L0,480z"
   id="path8" />&#10;	<path
   class="st8"
   d="M156.9,239.9L0,396.8V83.1L156.9,239.9z"
   id="path9" />&#10;	<path
   class="st9"
   d="M0,355.2V124.7L115.3,240L0,355.2z"
   id="path10" />&#10;</g>&#10;</svg>
