<?xml version="1.0" encoding="UTF-8" standalone="no"?>
<!-- Created with Inkscape (http://www.inkscape.org/) -->

<svg
   width="22"
   height="14"
   viewBox="0 0 22 14"
   version="1.1"
   id="svg1"
   sodipodi:docname="boost.svg"
   inkscape:version="1.3 (0e150ed6c4, 2023-07-21)"
   xmlns:inkscape="http://www.inkscape.org/namespaces/inkscape"
   xmlns:sodipodi="http://sodipodi.sourceforge.net/DTD/sodipodi-0.dtd"
   xmlns="http://www.w3.org/2000/svg"
   xmlns:svg="http://www.w3.org/2000/svg">
  <sodipodi:namedview
     id="namedview1"
     pagecolor="#ffffff"
     bordercolor="#000000"
     borderopacity="0.25"
     inkscape:showpageshadow="2"
     inkscape:pageopacity="0.0"
     inkscape:pagecheckerboard="0"
     inkscape:deskcolor="#d1d1d1"
     inkscape:document-units="px"
     showgrid="false"
     inkscape:zoom="22.627417"
     inkscape:cx="14.694563"
     inkscape:cy="10.208854"
     inkscape:window-width="1876"
     inkscape:window-height="1006"
     inkscape:window-x="0"
     inkscape:window-y="0"
     inkscape:window-maximized="1"
     inkscape:current-layer="layer1" />
  <defs
     id="defs1" />
  <g
     inkscape:label="Layer 1"
     inkscape:groupmode="layer"
     id="layer1">
    <path
       d="M 4.5237765,0.4971803 C 4.4171823,0.5291586 4.3425664,0.6037745 4.2892693,0.6890499 L 0.07879908,5.9121648 C -0.13438929,6.2319474 0.11077733,6.7435992 0.50517585,6.7649182 H 3.0634362 v 2.856724 c 0,4.5409118 -0.586268,3.8587108 3.9013471,3.8587108 h 8.1651147 l -2.451666,-3.027275 c -0.03198,-0.02132 -0.03198,-0.04264 -0.0533,-0.06396 H 6.9754427 c -0.4690144,0 -0.7674781,-0.319782 -0.7674781,-0.7674785 v -2.87804 H 8.8728191 C 9.2672174,6.7755782 9.5443624,6.2319474 9.2991954,5.9228242 L 5.0887257,0.6997093 C 4.9608126,0.5184992 4.7263054,0.4332238 4.5237765,0.4865209 Z M 17.48563,0.9555353 c -0.586268,-0.021319 -1.407043,0.021319 -2.55826,0.021319 H 6.7942326 l 2.4729848,3.0379342 0.03198,0.063957 h 5.5961956 c 0.447696,0 0.767478,0.2984637 0.767478,0.7674781 v 2.8780426 h -2.664854 c -0.383739,0.02132 -0.596928,0.575609 -0.319783,0.852754 l 4.178492,5.2231158 c 0.19187,0.266486 0.639565,0.266486 0.831435,0 l 4.199811,-5.2231158 c 0.277145,-0.298464 0,-0.884732 -0.394399,-0.852754 H 18.839376 V 4.846223 c 0,-3.3577168 0.426377,-3.8587094 -1.332427,-3.9013471 z"
       fill="#707b97"
       stroke-width="0"
       id="path1"
       style="fill:#ffffff;fill-opacity:1" />
  </g>
</svg>
